<svg xmlns="http://www.w3.org/2000/svg" viewBox="0 0 1200 800" fill="none">
  <defs>
    <linearGradient id="bg" x1="120" y1="60" x2="1080" y2="740" gradientUnits="userSpaceOnUse">
      <stop stop-color="#13203f" />
      <stop offset="1" stop-color="#070b17" />
    </linearGradient>
    <linearGradient id="line" x1="96" y1="96" x2="1104" y2="704" gradientUnits="userSpaceOnUse">
      <stop stop-color="#ffbc73" />
      <stop offset="1" stop-color="#73f2ff" />
    </linearGradient>
  </defs>
  <rect width="1200" height="800" fill="url(#bg)" />
  <circle cx="232" cy="158" r="154" fill="#ffbc73" fill-opacity=".14" />
  <circle cx="987" cy="645" r="186" fill="#73f2ff" fill-opacity=".12" />
  <rect x="42" y="42" width="1116" height="716" rx="42" fill="#0f162b" fill-opacity=".82" stroke="url(#line)" stroke-opacity=".38" stroke-width="2" />
  <rect x="86" y="94" width="1028" height="612" rx="28" fill="#f6efe5" fill-opacity=".06" stroke="#ffffff" stroke-opacity=".12" />
  <rect x="110" y="120" width="140" height="12" rx="6" fill="#ffbc73" />
  <rect x="264" y="120" width="64" height="12" rx="6" fill="#73f2ff" fill-opacity=".78" />
  <text x="110" y="208" fill="#f4f7ff" font-family="Segoe UI, Arial, sans-serif" font-size="26" letter-spacing="7">CERTIFICATE</text>
  <text x="110" y="312" fill="#ffffff" font-family="Georgia, Times New Roman, serif" font-size="58">Generative AI</text>
  <text x="110" y="382" fill="#ffffff" font-family="Georgia, Times New Roman, serif" font-size="58">Automation</text>
  <text x="110" y="458" fill="#c8d2ea" font-family="Segoe UI, Arial, sans-serif" font-size="28">Vanderbilt University</text>
  <text x="110" y="508" fill="#97a4c2" font-family="Segoe UI, Arial, sans-serif" font-size="22" letter-spacing="3">ISSUED VIA COURSERA</text>
  <rect x="110" y="560" width="306" height="78" rx="22" fill="#ffffff" fill-opacity=".06" stroke="#ffffff" stroke-opacity=".14" />
  <text x="146" y="608" fill="#ffbc73" font-family="Segoe UI, Arial, sans-serif" font-size="24">AI workflows</text>
  <rect x="886" y="196" width="180" height="180" rx="38" fill="#ffffff" fill-opacity=".05" stroke="#ffffff" stroke-opacity=".16" />
  <path d="M943 274h66M943 308h66M943 342h42" stroke="#73f2ff" stroke-width="12" stroke-linecap="round" />
</svg>
